<svg width="80" height="80" viewBox="0 0 80 80" fill="none" xmlns="http://www.w3.org/2000/svg">
<rect width="80" height="80" rx="40" fill="#FFFDA1"/>
<path d="M26.8228 27.8316L51.3074 13.0153C53.3668 11.7691 55.5697 14.3924 53.9862 16.2053L43.4637 28.2518C42.7654 29.0513 42.7705 30.2452 43.4755 31.0386L53.8721 42.7393C55.4717 44.5395 53.2885 47.1821 51.2187 45.9509L26.8364 31.4466C25.4688 30.633 25.4613 28.6554 26.8228 27.8316Z" fill="black"/>
<path d="M26.4971 40.4858L41.5547 51.511C42.7163 52.3616 42.7023 54.1005 41.5272 54.9322L26.6198 65.4836C24.6675 66.8654 22.2872 64.4426 23.7033 62.5151L29.6155 54.4678C30.1536 53.7353 30.1616 52.7404 29.6353 51.9993L23.5332 43.407C22.1483 41.457 24.5673 39.0728 26.4971 40.4858Z" fill="black"/>
</svg>
